<?xml version="1.0" encoding="UTF-8" standalone="no"?>
<svg
   id="vector"
   width="108"
   height="108"
   viewBox="0 0 1000 1000"
   version="1.1"
   xmlns="http://www.w3.org/2000/svg"
   xmlns:svg="http://www.w3.org/2000/svg">
  <defs
     id="defs36">
    <linearGradient
       gradientUnits="userSpaceOnUse"
       x1="768.5"
       y1="311.7"
       x2="768.5"
       y2="850.2"
       id="gradient_0">
      <stop
         stop-color="#C9C1B7"
         offset="0"
         id="stop1" />
      <stop
         stop-color="#CFC9C0"
         offset="0.5"
         id="stop2" />
      <stop
         stop-color="#D2CDC5"
         offset="1"
         id="stop3" />
    </linearGradient>
    <linearGradient
       gradientUnits="userSpaceOnUse"
       x1="250.6"
       y1="471"
       x2="424.8"
       y2="645.3"
       id="gradient_1">
      <stop
         stop-color="#CBC4BB"
         offset="0"
         id="stop4" />
      <stop
         stop-color="#D3CFC6"
         offset="0.5"
         id="stop5" />
      <stop
         stop-color="#D7D3CB"
         offset="1"
         id="stop6" />
    </linearGradient>
    <linearGradient
       gradientUnits="userSpaceOnUse"
       x1="380.8"
       y1="151.3"
       x2="428.8"
       y2="264.5"
       id="gradient_2">
      <stop
         stop-color="#130B05"
         offset="0"
         id="stop7" />
      <stop
         stop-color="#BE4C17"
         offset="1"
         id="stop8" />
    </linearGradient>
    <linearGradient
       gradientUnits="userSpaceOnUse"
       x1="354.8"
       y1="464.4"
       x2="354.8"
       y2="926.4"
       id="gradient_3">
      <stop
         stop-color="#F3F8F2"
         offset="0"
         id="stop9" />
      <stop
         stop-color="#E0E5E2"
         offset="0.3"
         id="stop10" />
      <stop
         stop-color="#D4DAD7"
         offset="0.7"
         id="stop11" />
      <stop
         stop-color="#D0D6D4"
         offset="1"
         id="stop12" />
    </linearGradient>
    <linearGradient
       gradientUnits="userSpaceOnUse"
       x1="344.8"
       y1="276.5"
       x2="743.8"
       y2="825.8"
       id="gradient_4">
      <stop
         stop-color="#F47722"
         offset="0"
         id="stop13" />
      <stop
         stop-color="#934715"
         offset="1"
         id="stop14" />
    </linearGradient>
    <linearGradient
       gradientUnits="userSpaceOnUse"
       x1="438.7"
       y1="155.4"
       x2="492.9"
       y2="283.1"
       id="gradient_5">
      <stop
         stop-color="#130B05"
         offset="0"
         id="stop15" />
      <stop
         stop-color="#D65F17"
         offset="0.8"
         id="stop16" />
      <stop
         stop-color="#DD6218"
         offset="1"
         id="stop17" />
    </linearGradient>
    <linearGradient
       gradientUnits="userSpaceOnUse"
       x1="438.3"
       y1="184"
       x2="471.1"
       y2="261.4"
       id="gradient_6">
      <stop
         stop-color="#152034"
         offset="0"
         id="stop18" />
      <stop
         stop-color="#152034"
         offset="1"
         id="stop19" />
    </linearGradient>
    <linearGradient
       gradientUnits="userSpaceOnUse"
       x1="512.5"
       y1="160"
       x2="512.5"
       y2="291.4"
       id="gradient_7">
      <stop
         stop-color="#0061D1"
         offset="0"
         id="stop20" />
      <stop
         stop-color="#0061D1"
         offset="0.5"
         id="stop21" />
      <stop
         stop-color="#0060CF"
         offset="0.7"
         id="stop22" />
      <stop
         stop-color="#015DC8"
         offset="0.7"
         id="stop23" />
      <stop
         stop-color="#0358BB"
         offset="0.8"
         id="stop24" />
      <stop
         stop-color="#0651AA"
         offset="0.8"
         id="stop25" />
      <stop
         stop-color="#094893"
         offset="0.9"
         id="stop26" />
      <stop
         stop-color="#0D3D78"
         offset="0.9"
         id="stop27" />
      <stop
         stop-color="#133058"
         offset="0.9"
         id="stop28" />
    </linearGradient>
    <linearGradient
       gradientUnits="userSpaceOnUse"
       x1="403.3"
       y1="396"
       x2="621.5"
       y2="365.8"
       id="gradient_8">
      <stop
         stop-color="#19253B"
         offset="0"
         id="stop29" />
      <stop
         stop-color="#080C14"
         offset="1"
         id="stop30" />
    </linearGradient>
    <linearGradient
       gradientUnits="userSpaceOnUse"
       x1="469.5"
       y1="338"
       x2="555.2"
       y2="423.7"
       id="gradient_9">
      <stop
         stop-color="#0060CF"
         offset="0"
         id="stop31" />
      <stop
         stop-color="#00459A"
         offset="1"
         id="stop32" />
    </linearGradient>
    <radialGradient
       gradientUnits="userSpaceOnUse"
       cx="521.5"
       cy="395.2"
       r="178.6"
       id="gradient_10">
      <stop
         stop-color="#000000"
         offset="0"
         id="stop33" />
      <stop
         stop-color="#000000"
         stop-opacity="0"
         offset="0.8"
         id="stop34" />
    </radialGradient>
    <linearGradient
       gradientUnits="userSpaceOnUse"
       x1="416.7"
       y1="768.4"
       x2="592.4"
       y2="944.1"
       id="gradient_11">
      <stop
         stop-color="#A34E16"
         offset="0"
         id="stop35" />
      <stop
         stop-color="#844012"
         offset="1"
         id="stop36" />
    </linearGradient>
  </defs>
  <g
     transform="matrix(0.99988288,0,0,0.99988288,0.09250665,0.09250665)"
     id="g_0">
    <path
       fill="#d7d3cb"
       d="M 0,0 H 1000 V 1000 H 0 Z"
       id="path36" />
    <path
       fill="url(#gradient_0)"
       d="M 654.3,311.7 896,570.4 c 0,0 -48.6,193.6 -172.2,269.7 -123.6,76.2 -72.5,-305.5 -72.5,-305.5 z"
       id="path37"
       style="fill:url(#gradient_0)" />
    <path
       fill="url(#gradient_1)"
       d="M 204,517.6 368.4,701.7 459.4,566.9 350.9,511 Z"
       id="path38"
       style="fill:url(#gradient_1)" />
    <path
       fill="url(#gradient_2)"
       d="m 369.5,263.6 c 0,0 -2.5,-85 0,-99.1 2.5,-14.1 15.6,-16.3 27.6,-10.7 12,5.6 41.9,18.6 71.5,66.6 29.6,48 -99.1,43.2 -99.1,43.2 z"
       id="path39"
       style="fill:url(#gradient_2)" />
    <path
       fill="url(#gradient_3)"
       d="m 516.5,606.2 c 0,41.1 -11.8,83.3 -55.7,118.6 -4.5,3.6 -8.6,7.6 -12.3,12 -31.9,37.6 -31.3,101.4 4.9,189.7 -13.2,-0.4 -25.5,-1.5 -36.7,-2.8 -43.9,-5.1 -71.5,-15 -71.5,-15 0,0 -20.2,-112.3 6.6,-182.8 26.8,-70.5 27,-80.2 26.2,-112.4 -0.8,-32.2 -9.4,-55.8 -40.1,-55.5 -15.6,0.2 -35.4,2.9 -60.4,-3.9 -19,-5.1 -39.5,-12.4 -55.7,-20.3 -14.3,-7 -25.3,-17.2 -28.8,-26.2 0,0 0.8,-0.4 2,-1.1 0.2,-0.1 0.4,-0.2 0.6,-0.4 0.2,-0.1 0.5,-0.3 0.7,-0.4 0.2,-0.1 0.5,-0.3 0.8,-0.4 0.9,-0.6 2,-1.2 3.1,-1.9 0.6,-0.4 1.3,-0.8 2,-1.3 1,-0.7 2.1,-1.4 3.2,-2.2 1.1,-0.8 2.2,-1.6 3.3,-2.5 q 0,0 0,0 c 0.7,-0.6 1.4,-1.2 2.2,-1.8 1.8,-1.6 3.5,-3.3 5.1,-5 0.9,-1.1 1.8,-2.2 2.5,-3.3 0.3,-0.4 0.5,-0.8 0.7,-1.1 v 0 c 9,-2.6 31.1,-8.7 44.3,-11.7 16.9,-3.8 55.9,-11 83.2,-10 27.3,1 56.2,5.6 103.7,39.8 47.5,34.2 66.1,60.8 66.1,101.9 z"
       id="path40"
       style="fill:url(#gradient_3)" />
    <path
       fill="url(#gradient_4)"
       d="m 723.9,638.2 c 0.2,101.9 -0.1,201.9 -0.1,201.9 -24,18.5 -48.9,33.6 -73,45.4 -51.6,-68.8 -94.3,10.7 -147.5,-12.4 -59.4,-25.8 -52.7,-120.1 -55.1,-136 3.7,-4.3 8.1,-8.7 12.6,-12.3 43.9,-35.2 55.7,-77.4 55.7,-118.6 0,-41.2 -18.6,-67.7 -66.1,-101.9 -47.5,-34.2 -76.3,-38.8 -103.7,-39.8 -27.3,-1 -66.4,6.1 -83.2,10 -13.2,3 -35.3,9.1 -44.3,11.7 v 0 c 7.5,-12.1 3.6,-21.4 -2,-24.6 -4.5,-2.6 -17.1,-6 -22.5,-6.9 0,0 55.9,-29.1 78.7,-65.2 8.5,-13.4 17.8,-32.2 25.7,-47.7 13.3,-26 28.2,-50.6 70.2,-83 0,0 0,0 0.1,0 19.1,-14.8 41.7,-24.4 63.9,-30.1 6.2,-1.6 12.3,-2.9 18.3,-3.9 4.9,-0.8 9.7,-1.5 14.4,-2 1.3,-0.1 2.5,-0.3 3.7,-0.3 0.7,-0.1 1.4,-0.1 2.1,-0.2 4.1,-0.3 8,-0.5 11.9,-0.6 20.9,-0.6 38.3,1.4 48.2,3 5.8,0.9 9.1,1.7 9.1,1.7 0.1,0 0.2,0 0.2,0.1 105.8,30 161.4,150.1 174.2,209.6 0.3,1.5 0.7,3.1 1.1,5 1.7,8 3.9,19.8 5.2,33.8 0.2,2.5 0.4,5 0.6,7.6 2.5,40 1.5,98.6 1.6,155.9 z"
       id="path41"
       style="fill:url(#gradient_4)" />
    <path
       fill="#19253b"
       d="m 219.2,486.1 c -7.5,12.1 -26.1,21.5 -26.1,21.5 -7.6,-6.9 -13.7,-25.1 -11.2,-37.5 2.6,-12.4 12.8,-15.5 12.8,-15.5 5.4,0.9 18,4.3 22.5,6.9 5.6,3.2 9.6,12.5 2,24.6 z"
       id="path42" />
    <path
       fill="url(#gradient_5)"
       d="m 538.9,232.8 c 0,0 -50.4,-59.6 -65.9,-73.2 -15.5,-13.6 -35.5,-9.9 -38.9,6.8 -3.4,16.7 1.7,140.9 1.7,140.9 l 56.5,-25.5 z"
       id="path43"
       style="fill:url(#gradient_5)" />
    <path
       fill="url(#gradient_6)"
       d="m 452.9,177.8 c 0,0 -3.2,76.3 0,91.4 0,0 15.7,-7.7 21.6,-9.2 0,0 2,-60.4 -21.6,-82.2 z"
       id="path44"
       style="fill:url(#gradient_6)" />
    <path
       fill="url(#gradient_7)"
       d="m 493.5,160 h 38 c 5.4,0 9.8,4.4 9.8,9.8 V 291.4 H 483.8 V 169.8 c 0,-5.4 4.4,-9.8 9.8,-9.8 z"
       id="path45"
       style="fill:url(#gradient_7)" />
    <path
       fill="url(#gradient_8)"
       d="m 622.5,380.9 c 0,60.8 -49.3,110.1 -110.1,110.1 -15,0 -29.3,-3 -42.4,-8.5 -39.8,-16.6 -67.8,-55.9 -67.8,-101.7 0,-60.8 49.3,-110.1 110.1,-110.1 45.8,0 85.1,28 101.7,67.8 5.4,13.1 8.5,27.4 8.5,42.4 z"
       id="path46"
       style="fill:url(#gradient_8)" />
    <path
       fill="#0189ff"
       d="m 512.4,294.4 c -47.8,0 -86.5,38.7 -86.5,86.5 0,47.8 38.7,86.5 86.5,86.5 0.3,0 0.5,0 0.8,0 47.2,-0.4 85.3,-38.5 85.7,-85.7 0,-0.3 0,-0.5 0,-0.8 0,-47.8 -38.7,-86.5 -86.5,-86.5 z m 60.6,86.5 c 0,33.5 -27.1,60.6 -60.6,60.6 -16.7,0 -31.9,-6.8 -42.8,-17.8 v 0 c -11,-11 -17.8,-26.1 -17.8,-42.8 0,-33.5 27.1,-60.6 60.6,-60.6 16.7,0 31.9,6.8 42.8,17.8 11,11 17.8,26.1 17.8,42.8 z"
       id="path47" />
    <path
       fill="url(#gradient_9)"
       d="m 573,380.9 c 0,33.5 -27.1,60.6 -60.6,60.6 -16.7,0 -31.9,-6.8 -42.8,-17.8 v 0 c -11,-11 -17.8,-26.1 -17.8,-42.8 0,-33.5 27.1,-60.6 60.6,-60.6 16.7,0 31.9,6.8 42.8,17.8 11,11 17.8,26.1 17.8,42.8 z"
       id="path48"
       style="fill:url(#gradient_9)" />
    <path
       fill="#016bc9"
       d="m 598.8,381.6 c -0.4,47.2 -38.5,85.3 -85.7,85.7 l -43.6,-43.6 v 0 c 0,0 0,0 0,0 11,11 26.1,17.8 42.8,17.8 33.5,0 60.6,-27.1 60.6,-60.6 0,-16.7 -6.8,-31.9 -17.8,-42.8 l 43.6,43.6 z"
       id="path49" />
    <path
       fill="url(#gradient_10)"
       d="M 736,460.5 591.9,604.6 470,482.6 c 13,5.4 27.4,8.5 42.4,8.5 60.8,0 110.1,-49.3 110.1,-110.1 0,-15 -3,-29.3 -8.5,-42.4 l 122,122 z"
       id="path50"
       style="fill:url(#gradient_10)" />
    <path
       fill="url(#gradient_11)"
       d="m 651.4,885.2 c -72.4,35.3 -142.9,43.1 -198,41.2 -36.2,-88.3 -36.8,-152.1 -4.9,-189.7 2.4,16 14.4,56.1 73.8,81.9 53.2,23.1 77.5,-2.2 129.1,66.6 z"
       id="path51"
       style="fill:url(#gradient_11)" />
    <path
       fill="#000000"
       d="m 327.3,412.9 c 4.8,9.3 14.4,15 24.7,14.7 14.4,-0.5 21.9,-12.7 22.3,-13.5"
       fill-opacity="0"
       stroke-linecap="round"
       stroke="#19253b"
       stroke-width="15"
       id="path52" />
  </g>
</svg>
